<svg width="29" height="23" viewBox="0 0 29 23" fill="none" xmlns="http://www.w3.org/2000/svg">
<g id="&#208;&#160;&#208;&#181;&#209;&#129;&#209;&#131;&#209;&#128;&#209;&#129; 1 1" clip-path="url(#clip0_4125_495)">
<g id="&#208;&#161;&#208;&#187;&#208;&#190;&#208;&#185; 2">
<g id="Graphic Elements">
<path id="Vector" d="M0.64917 0.666748C3.59053 0.666748 6.41143 1.83725 8.49129 3.92075C10.5711 6.00425 11.7396 8.83008 11.7396 11.7766V22.3334C8.79824 22.3334 5.97734 21.1629 3.89748 19.0794C1.81762 16.9959 0.64917 14.1701 0.64917 11.2236V0.666748Z" fill="#780096"/>
<path id="Vector_2" d="M12.7081 13.3508V7.74489C12.7081 6.81506 12.891 5.89434 13.2463 5.03533C13.6017 4.17633 14.1225 3.39587 14.779 2.73855C15.4355 2.08124 16.2149 1.55994 17.0726 1.20446C17.9303 0.848969 18.8495 0.666253 19.7777 0.666749V6.27453C19.7777 7.20427 19.5948 8.1249 19.2394 8.9838C18.8841 9.8427 18.3632 10.623 17.7067 11.2802C17.0502 11.9374 16.2708 12.4585 15.4131 12.8138C14.5554 13.169 13.6362 13.3515 12.7081 13.3508Z" fill="#780096"/>
<path id="Vector_3" d="M12.7081 14.4456H20.8102C22.8971 14.4456 24.8984 15.276 26.374 16.7542C27.8497 18.2324 28.6787 20.2373 28.6787 22.3278H20.5766C18.4897 22.3278 16.4884 21.4973 15.0127 20.0191C13.5371 18.5409 12.7081 16.5361 12.7081 14.4456Z" fill="#780096"/>
</g>
</g>
</g>
<defs>
<clipPath id="clip0_4125_495">
<rect width="28.0351" height="21.6667" fill="white" transform="translate(0.64917 0.666748)"/>
</clipPath>
</defs>
</svg>
